<svg version="1.1" id="Layer_1" xmlns="http://www.w3.org/2000/svg" x="0" y="0" width="500" height="500" viewBox="0 0 500 500" xml:space="preserve"><g fill="#F7F5F5"><path d="M176.55 68.09c1.433.04 2.667-.576 2.667-1.5-.284-.812-.29-1.995-1.46-2.37-.772-.247-2.23 2.01-2.115 3.194.053.535.432.664.908.677z"/><path d="M249.69 3.645C113.705 3.645 3.47 113.88 3.47 249.865c0 135.984 110.236 246.22 246.22 246.22 135.983 0 246.22-110.236 246.22-246.22 0-135.984-110.238-246.22-246.22-246.22zM239.13 171.82c.718-.613 1.684-.93 2.512-1.424 1.052-.627 1.287-1.455.35-2.03-1.97-1.21-1.885-2.997-1.768-4.852.25-3.95.762-7.862 1.616-11.732.55-2.493.752-5.035.763-7.59.02-4.95 1.455-9.536 3.787-13.833 3.027-5.58 6.395-10.912 11.38-15.04 2.68-2.22 5.52-4.016 8.983-4.737 1.714-.357 3.39-.897 5.086-1.352 3.45-.928 6.936-1.12 10.418-.273 1.208.294 2.4.503 3.635.502 3.553-.003 6.983.65 10.276 1.98 3.408 1.378 6.944 2.388 10.25 4.1 1.788.926 2.615 2.756 4.42 3.6.754.35 1.488.857 2.317 1.082 8.764 2.373 14.55 8.165 18.438 16.098.823 1.68 1.085 3.55.973 5.4-.188 3.092-.962 6.047-2.33 8.857-1.174 2.404-2.9 4-5.647 4.078-1.232.034-1.382.612-1.47 1.61-.252 2.885-.574 5.766-.917 8.643-.334 2.81-1.282 5.306-3.88 6.83-.694.407-.926.942-.917 1.723.033 2.978-.186 5.967 1.45 8.704.776 1.297 1.01 2.804.803 4.334-.267 1.96-1.332 2.973-3.28 3.112-.438.03-.88 0-1.318-.01-3.042-.07-3.086-.037-3.38 2.903-.06.612-.126 1.228-.124 1.84.004 2.16-.296 4.063-3 4.402-.634.08-.797.512-.847 1.29-.1 1.575-.666 3.056-2.39 3.748-1.045.42-1.536 1.408-1.927 2.404-.224.57-.358 1.175-.563 1.752-1.373 3.877-4.83 5.645-8.804 4.52-1.535-.436-2.925-1.19-4.314-1.944-1.24-.674-2.493-1.27-4.53-1.29 2.14 1.312 2.984 3.095 4.017 4.74.62.986 1.487 1.736 2.417 2.4 1.49 1.066 2.198 2.507 2.058 4.303-.11 1.41.207 2.47 1.368 3.45.182.155.34.323.497.492-.62-.3-1.235-.603-1.854-.902-8.59-4.15-16.704-8.072-23.677-14.044-2.326-1.99-4.648-4.103-6.894-6.144-2.35-2.137-4.78-4.346-7.258-6.46-4.23-3.61-7.514-7.35-10.038-11.436-1.088-1.76-2.22-3.512-3.318-5.206-.747-1.154-1.495-2.31-2.23-3.47-.873-1.377-1.724-2.767-2.577-4.156l-.03-.05c.498-.214.986-.515 1.465-.924zM81.065 382.453c4.13-8.648 7.186-17.725 10.52-26.69 2.247-6.035 5.073-11.756 8.575-17.16 6.78-10.467 12.835-21.407 20.167-31.51 4.587-6.32 7.966-13.056 10.275-20.576 3.37-10.98 7.425-21.76 11.446-32.528 3.794-10.16 5.4-20.685 6.05-31.422.2-3.332.4-6.664.664-9.99.1-1.262-.104-2.034-1.627-1.946-2.11.122-3.97-.772-5.677-1.854-4.126-2.62-8.665-4.206-13.29-5.625-13.345-4.094-25.652-10.493-37.797-17.207-5.523-3.054-9.534-7.678-12.356-13.335-1.07-2.143-1.192-4.262-.695-6.627 1.722-8.197 5.99-14.718 12.543-19.816 1.054-.82 1.862-1.815 2.658-2.878 3.634-4.853 7.326-9.662 11.018-14.47 1.914-2.49 4.448-4.227 7.216-5.623 1.506-.76 2.83-1.72 4.09-2.84 4.014-3.576 8.33-6.75 13.142-9.177 3.382-1.706 6.838-3.43 9.634-5.904 3.16-2.796 6.777-4.193 10.64-5.407 2.847-.896 4.79-3.194 6.93-5.12.522-.47.654-1.41.886-2.158 1.61-5.197 3.207-10.4 4.14-15.772.435-2.495 1.863-4.52 2.96-6.703.415-.825 1.143-1.313 2.09-1.43.697-.087 1.458-.42 2.077-.245 3.133.893 4.83-.806 6.36-3.153.762-1.168 1.873-2.102 3.126-2.786 2.136-1.167 3.776-.454 4.387 1.91.13.506.214 1.05.177 1.565-.077 1.07.304 1.574 1.425 1.7 1.078.123 1.887.892 2.673 1.598 2.534 2.275 4.3 5.077 5.59 8.203.24.58.63 1.316.328 1.76-1.05 1.55.155 2.637.6 3.878.386 1.073.84 2.122 1.23 3.192.277.758.468 1.655.112 2.323-1.44 2.698-.617 5.647-1.067 8.447-.032.2-.047.41-.06.625l-3.804 2.994c-.63-2.162-2.1-4.078-3.984-5.173-1.194-.694-2.69-1.076-4.213-1.076-1.067 0-2.087.183-3.03.543-2.284.872-3.635 3.092-3.362 5.524.358 3.192-.57 5.637-2.915 7.695-.773.68-1.06 1.498-1.183 1.847l-.005.013-.38.82.14.97c.05.348.135.676.206 1.012-.298.51-.348 1.26-.41 2.598-.057 1.228-.238 2.22-1.677 2.583-1.175.296-1.778 1.308-2.42 2.286-3.582 5.448-7.62 10.54-12.466 14.915-3.41 3.078-6.52 6.398-9.197 10.117-1.81 2.515-3.894 4.772-6.316 6.68-1.882 1.484-2.192 3.555-2.834 5.845 1.18 0 2.055-.05 2.924.007 4.293.276 8.61-.283 12.89.378.732.113 1.368-.228 2.05-.357 1.624-.31 3.365-1.107 4.9-.28 2.087 1.122 4.133 1.172 6.34.752 1.13-.215 2.285-.018 3.406.204 1.6.318 3.12.26 4.608-.514 1.464-.76 3.028-.964 4.58-.292 1.115.482 1.866.06 2.83-.542 2.185-1.365 4.077-3.163 6.22-4.585 5.662 14.71 12.123 27.468 19.75 38.98.807 1.215 1.63 2.42 2.452 3.626 1.607 2.356 3.27 4.79 4.746 7.237 1.45 2.4 3.368 4.412 5.548 5.815 3.037 1.955 5.37 4.657 7.89 7.73 2.19 2.673 4.397 5.422 6.53 8.08 4.423 5.516 8.997 11.22 13.776 16.644l.39.443c4.123 4.68 8.367 9.5 13.127 13.85-3.254 2.745-6.17 6.238-9.07 10.84-5.622 8.918-11.6 16.034-18.274 21.756-5.222 4.476-9.955 9.702-14.47 15.98-1.507 2.09-3.21 4.043-5.015 6.11-.573.658-1.146 1.315-1.712 1.977-.676.79-1.697 1.384-3.023 2.034-3.602 1.764-4.402 3.306-3.722 7.174.503 2.863 1.184 5.897 2.727 8.745-1.5 3.185-2.998 6.425-4.447 9.562-.694 1.503-1.39 3.007-2.086 4.51l-.084.178c-4.744 2.015-5.435 6.88-5.7 8.744-.3 2.102-.726 3.695-1.383 5.163-2.04 4.56-4.53 10.72-5.698 17.3-.23 1.305-.313 2.856-.355 3.856h-.124c-2.77 0-4.947 1.26-6.694 2.337-.25.154-.5.267-.75.417l-.24.122c-.683.41-1.12.653-1.518.727-2.97.56-4.902 2.938-4.92 6.066-.004.595.01 1.187.024 1.782.013.54.026 1.08.022 1.62l-.02.006c-1.046.3-2.236.403-3.496.512-1.035.09-2.104.18-3.223.388-2.44.448-4.883.878-7.326 1.31-8.947 1.578-18.2 3.21-27.207 5.678l-3.454.944c-7.22 1.97-14.69 4.008-21.974 6.358-.61.196-1.28.354-1.992.52-.374.09-.748.177-1.12.27l-.456.116c-1.476-3.782-2.657-7.672-3.997-11.504-.584-1.67-1.387-2.73-3.126-3.48-5.12-2.204-9.46-5.697-13.9-9-.644-.48-.868-.895-.465-1.74zm362.06-84.53c-3.18 3.55-4.56 8.07-6.686 12.186-2.387 4.617-5.063 9.036-8.584 12.904-4.544 4.99-10.84 8.66-17.81 10.347.376.447.59.94.59 1.463 0 .865-.577 1.657-1.532 2.27 6.8 1.197 31.513 8.204 33.58 47.028 0 0-13.046-15.095-23.36-22.424-10.078-7.16-22.995-15.873-19.536-24.244-1.335-.647-2.18-1.583-2.18-2.63 0-.215.04-.426.11-.63-6.3-.667-12.652-3.043-18.39-7.556-5.154-4.054-9.268-8.84-10.97-15.362-.556-2.133-.823-4.303-.895-6.605-1.76.01-3.005.79-4.066 2.055-1.755 2.09-3.644 4.05-5.864 5.664-.845.613-1.678.963-2.652.963-.394 0-.813-.057-1.264-.18-.95-.254-1.896-.372-2.833-.372-2.008 0-3.978.544-5.876 1.448-2.308 1.1-4.434 2.5-6.512 3.975-4.372 3.103-8.836 6.042-13.75 8.256-1.923.866-3.734 1.957-5.06 3.68-1.272.402-2.37 1.134-3.494 1.82-3.225 1.97-6.322 4.1-9.19 6.585-1.04.9-1.747 1.35-2.386 1.35-.73 0-1.368-.585-2.31-1.752-1.566-1.94-3.2-3.765-5.862-4.148-1.028-.148-1.152-.83-1.134-1.727.055-2.81-.025-5.626.072-8.435.078-2.28-.362-4.355-1.767-6.19-.265-.347-.5-.732-.668-1.133-.412-.99 3.82-5.914 5.133-6.47 1.86-.785 2.182-2.947.664-4.29-.386-.342-.855-.635-1.337-.82-.246-.093-.55-.136-.9-.136-3.29 0-10.645 3.83-11.566 5.367-.774 1.29-1.23 2.714-1.648 4.152-.634 2.184-.823 2.275-3.107 2.415-.262.016-.522.024-.78.024-2.053 0-3.968-.51-5.802-1.51-2.63-1.434-5.14-3.056-7.483-4.905-4.55-3.59-9.007-7.3-13.54-10.913-1.507-1.202-3.087-2.328-4.71-3.37-.667-.427-1.426-.715-2.145-.715-.64 0-1.25.23-1.737.796-.78.912-1.552 1.15-2.426 1.15-.458 0-.945-.066-1.477-.135-.234-.03-.458-.046-.673-.046-2.497 0-3.657 2.007-2.63 4.543.347.857 1.01 1.615.995 2.588-.27.11-.424.197-.59.233-3.923.88-4.817 3.07-2.65 6.397 1.328 2.038 2.593 4.117 3.748 5.958-.193.638-.45.68-.698.772-2.47.91-3.303 2.686-2.5 5.153.364 1.116 1.008 2.06 1.71 2.948 3.105 3.932 6.274 7.81 9.954 11.234 3.282 3.052 6.505 6.167 9.833 9.166 2.892 2.607 6.106 4.715 9.903 5.84 3.204.95 6.48 1.535 9.764 2.095 1.85.316 2.055.652 1.326 2.382-.204.485-.46.95-.672 1.43-.603 1.36-.73 2.792.05 4.062 2.757 4.477 6.108 8.417 11.044 10.58 2.426 1.064 4.697 2.374 6.997 3.652.995.553 1.97 1.153 2.554 2.195 2.953 4.876 5.763 9.814 7.172 15.417.23.92.273 1.706-.217 2.514-1.014 1.673-.72 3.132.15 4.913 1.753 3.594 4.21 6.443 7.444 8.697 3.24 2.26 4.85 5.213 4.078 9.263-.312 1.637.54 2.9 1.693 3.938 1.763 1.588 3.513 3.197 5.376 4.658 1.164.913 2.07 1.895 2.276 3.385.476 3.43 2.3 6.166 4.3 8.89 7.092 9.655 14.92 18.67 23.316 27.2.324.33.658.647.99.968-30.725 14.245-64.953 22.21-101.045 22.21-66.3 0-126.33-26.826-169.838-70.212 5.864-2.71 11.87-5.1 17.832-7.584.966-.402 2-.67 2.838-1.35 1.105-.28 2.23-.5 3.312-.85 8.35-2.693 16.828-4.94 25.287-7.26 11.265-3.086 22.795-4.822 34.255-6.925 2.335-.43 4.728-.315 7.03-.972 1.992-.57 2.393-1.02 2.41-3.136.01-1.142-.053-2.285-.046-3.427.01-1.514.773-2.577 2.232-2.85 1.092-.206 1.936-.754 2.837-1.29 1.842-1.1 3.61-2.412 5.756-2.412.638 0 1.31.116 2.026.39.18.068.335.1.47.1.65 0 .845-.71.867-1.472.05-1.84.037-3.67.363-5.51 1.02-5.756 3.093-11.154 5.46-16.45.873-1.95 1.337-3.93 1.638-6.045.37-2.597 1.12-5.22 4.01-6.288.87-.32 1.17-1 1.5-1.713 2.218-4.78 4.41-9.572 6.66-14.338.414-.88.416-1.566-.08-2.44-1.4-2.475-2.03-5.23-2.517-7.997-.424-2.41-.304-2.552 1.926-3.643 1.513-.742 2.974-1.562 4.076-2.85 2.34-2.734 4.8-5.392 6.898-8.307 4.077-5.667 8.653-10.87 13.94-15.4 7.55-6.472 13.657-14.154 18.917-22.5 2.71-4.3 5.758-8.167 9.83-11.212.478-.357 1.035-.68 1.218-1.328-.074-.155-.11-.356-.23-.458-5.725-4.84-10.645-10.47-15.58-16.072-7.027-7.977-13.493-16.42-20.23-24.637-2.563-3.124-5.18-6.174-8.654-8.41-1.834-1.18-3.358-2.838-4.51-4.748-2.272-3.76-4.846-7.322-7.27-10.98-8.04-12.133-14.374-25.144-19.574-38.72.14-.743-.278-1.36-.507-2-2.386-6.678-4.693-13.377-6.746-20.17-1.345-4.45-3.208-8.713-6.02-12.48-1.132-1.518-1.756-3.215-2.024-5.066.11-.238.16-.544.34-.7 3.2-2.81 4.486-6.35 4.017-10.54-.12-1.07.49-1.783 1.26-2.078.586-.223 1.226-.325 1.856-.325.946 0 1.87.23 2.557.63 1.07.62 2.138 1.85 2.534 3.46.46 1.87 1.236 2.775 2.336 2.775.76 0 1.676-.432 2.75-1.278.262 2.972.08 5.944-.26 8.885-.358 3.1.572 5.75 2.492 8.032 3.846 4.574 7.17 9.495 10.302 14.574 3.406 5.526 7.28 10.74 11.487 15.673 6.367 7.465 12.886 14.8 19.34 22.19 1.238 2.008 2.46 4.03 3.724 6.026 1.83 2.89 3.732 5.734 5.53 8.644 2.887 4.674 6.525 8.647 10.702 12.212 4.802 4.098 9.35 8.492 14.146 12.6 8.564 7.333 18.846 11.748 28.824 16.666 2.045 2.338 4.77 3.527 7.635 4.438 2.173.69 4.367 1.33 6.582 1.866 2.425.587 4.398 1.853 5.79 3.858 2.438 3.515 5.55 6.32 8.86 8.956 1.232.98 2.453 1.98 3.218 3.437.512.973 1.41 1.38 2.51 1.38h.14c.924-.03 1.846-.06 2.767-.06 1.97 0 3.93.134 5.87.68.206.06.412.084.618.084.74 0 1.476-.322 2.195-.576 2.485-.874 4.982-1.67 7.646-1.868 1.687-.126 3.21-.838 4.615-1.792 5.89-3.998 12.333-5.884 19.26-5.884.985 0 1.98.038 2.984.114.608.046 1.213.068 1.816.068 2.205 0 4.38-.29 6.552-.768 3.028-.665 5.56-2.055 7.473-4.555 1.723-2.254 3.794-4.14 6.283-5.542 1.776-1 3.28-1.515 4.66-1.515 2.028 0 3.78 1.113 5.705 3.428.45.54.882 1.1 1.25 1.694.32.517.626.863 1.184.863.147 0 .312-.024.5-.076.43-.118.84-.182 1.225-.182 1.167 0 2.084.59 2.52 2.037.182.61.592.728 1.016.728.163 0 .327-.017.48-.03.162-.015.318-.023.468-.023 1.584 0 2.543.81 2.977 2.44.088.328.32.62.498.924.8 1.374 1.155 1.984 1.73 1.984.46 0 1.06-.394 2.143-1.104.84-.552 1.693-.812 2.482-.812 1.764 0 3.208 1.305 3.486 3.574.333 2.7.085 5.443.514 8.15.303 1.905.42 3.84.688 5.753.077.553-.164 1.447.692 1.447.138 0 .305-.024.507-.075.068-.017.124-.025.17-.025.385 0 .163.517.043.69-1.003 1.45-.257 2.46.79 3.42.517.476 1.02.968 1.522 1.46 4.553 4.453 6.86 10.035 7.926 16.173.538 3.087.02 6.135-1.196 9.028-.383.91-.822 1.69-.018 2.654.75.9.318 1.922-.33 2.646zm-162.45 55.208c-1-1.824-3.006-2.166-3.97-2.33-3.24-.552-6.394-1.12-9.383-2.006-2.95-.874-5.772-2.55-8.632-5.128-2.125-1.916-4.257-3.925-6.318-5.868-1.156-1.09-2.313-2.18-3.476-3.262-3.6-3.348-6.722-7.202-9.613-10.863-.45-.57-.94-1.246-1.162-1.927-.12-.375-.137-.608-.132-.705.072-.063.267-.195.637-.332 1.368-.482 2.276-1.46 2.715-2.91l.434-1.435-.797-1.27c-.347-.552-.703-1.126-1.068-1.714-.868-1.397-1.765-2.84-2.71-4.292-.304-.466-.46-.798-.538-1.01.212-.103.57-.242 1.146-.37.42-.094.74-.237.954-.33l.144-.063 2.033-.818.03-2.19c.024-1.526-.59-2.66-.998-3.412-.086-.16-.175-.324-.222-.43.542.07 1.103.14 1.708.14 1.76 0 3.223-.59 4.456-1.797l.07.043c1.555.998 3.047 2.066 4.437 3.173 2.022 1.61 4.027 3.24 6.033 4.87 2.453 1.994 4.988 4.055 7.52 6.053 2.39 1.886 5.063 3.64 7.948 5.212 2.33 1.27 4.812 1.913 7.38 1.913.326 0 .652-.01.983-.03 3.743-.23 5.047-1.26 6.07-4.787.32-1.105.68-2.258 1.213-3.21.992-.935 4.566-2.783 7.046-3.566-.943.855-1.822 1.863-2.4 2.564-2.082 2.536-3.29 4.656-2.415 6.76.268.642.635 1.27 1.092 1.867.815 1.065 1.15 2.32 1.09 4.074-.057 1.654-.055 3.306-.053 4.905 0 1.18.003 2.4-.02 3.58-.082 4.15 3.01 4.92 3.96 5.056 1.33.193 2.275 1.106 3.767 2.956.898 1.113 2.402 2.977 4.875 2.977 1.897 0 3.34-1.112 4.543-2.154 2.454-2.127 5.235-4.117 8.75-6.264l.423-.26c.676-.417 1.28-.787 1.857-1.04.276 1.828.55 3.656.797 5.488.747 5.567 1.443 11.138 1.425 16.773-.005 1.54-.182 3.017-1.172 4.22-2.462 2.99-4.534 6.26-6.62 9.497-3.328 5.158-7.77 7.978-13.333 8.694-.296-.497-.592-.993-.888-1.483-1.09-1.905-2.848-2.88-3.796-3.408l-.858-.48c-2.04-1.138-4.15-2.315-6.416-3.31-3.637-1.594-6.585-4.46-9.56-9.29-.144-.235.036-.726.157-.998.078-.18.165-.355.25-.53.156-.318.31-.635.446-.96.376-.893 1.16-2.754.16-4.58z"/></g></svg>