<?xml version="1.0" encoding="utf-8"?>
<!-- Generator: Adobe Illustrator 17.0.0, SVG Export Plug-In . SVG Version: 6.00 Build 0)  -->
<!DOCTYPE svg PUBLIC "-//W3C//DTD SVG 1.1//EN" "http://www.w3.org/Graphics/SVG/1.1/DTD/svg11.dtd">
<svg version="1.1" id="Layer_1" xmlns="http://www.w3.org/2000/svg" xmlns:xlink="http://www.w3.org/1999/xlink" x="0px" y="0px"
	 width="500px" height="500px" viewBox="0 0 500 500" enable-background="new 0 0 500 500" xml:space="preserve">
<g id="QzmL7Y_1_" display="none">
	
		<image display="inline" overflow="visible" width="300" height="388" id="QzmL7Y" xlink:href="A029C11818B03A1C.jpg"  transform="matrix(1.6084 0 0 1.6084 996.8019 -14.4319)">
	</image>
</g>
<g>
	<path fill="#F7F5F5" d="M176.55,68.091c1.433,0.04,2.667-0.577,2.667-1.501c-0.284-0.812-0.291-1.995-1.461-2.37
		c-0.771-0.247-2.23,2.011-2.114,3.194C175.695,67.949,176.074,68.078,176.55,68.091z"/>
	<path fill="#F7F5F5" d="M249.689,3.645C113.706,3.645,3.47,113.881,3.47,249.865c0,135.984,110.236,246.22,246.22,246.22
		c135.983,0,246.219-110.236,246.219-246.22C495.909,113.881,385.672,3.645,249.689,3.645z M239.13,171.82
		c0.718-0.613,1.684-0.93,2.512-1.424c1.052-0.627,1.287-1.455,0.35-2.03c-1.97-1.209-1.885-2.997-1.768-4.852
		c0.251-3.949,0.762-7.862,1.616-11.732c0.551-2.493,0.752-5.035,0.763-7.591c0.021-4.948,1.455-9.535,3.787-13.832
		c3.027-5.578,6.395-10.911,11.38-15.038c2.681-2.22,5.52-4.017,8.983-4.738c1.714-0.357,3.391-0.897,5.086-1.352
		c3.451-0.929,6.937-1.121,10.419-0.274c1.208,0.294,2.399,0.503,3.635,0.502c3.553-0.002,6.983,0.652,10.276,1.982
		c3.409,1.377,6.945,2.387,10.251,4.099c1.788,0.926,2.615,2.756,4.421,3.6c0.753,0.351,1.487,0.857,2.316,1.082
		c8.764,2.373,14.549,8.165,18.438,16.098c0.823,1.679,1.085,3.549,0.973,5.4c-0.188,3.092-0.962,6.047-2.331,8.857
		c-1.173,2.404-2.899,4.001-5.646,4.078c-1.233,0.034-1.383,0.612-1.47,1.609c-0.253,2.886-0.575,5.767-0.918,8.644
		c-0.334,2.809-1.282,5.306-3.879,6.83c-0.695,0.407-0.927,0.942-0.918,1.723c0.033,2.977-0.186,5.966,1.451,8.703
		c0.775,1.297,1.009,2.804,0.802,4.334c-0.266,1.96-1.331,2.973-3.28,3.112c-0.437,0.031-0.878,0-1.317-0.01
		c-3.042-0.07-3.086-0.037-3.38,2.903c-0.061,0.612-0.126,1.228-0.124,1.841c0.004,2.158-0.296,4.062-3.001,4.401
		c-0.633,0.079-0.796,0.512-0.846,1.29c-0.102,1.575-0.667,3.056-2.392,3.748c-1.044,0.42-1.535,1.408-1.926,2.404
		c-0.224,0.57-0.358,1.175-0.563,1.752c-1.373,3.878-4.829,5.646-8.804,4.52c-1.535-0.435-2.925-1.19-4.314-1.943
		c-1.239-0.674-2.493-1.27-4.53-1.29c2.141,1.312,2.984,3.095,4.017,4.74c0.62,0.986,1.488,1.736,2.418,2.401
		c1.49,1.065,2.198,2.506,2.058,4.302c-0.11,1.41,0.207,2.471,1.368,3.452c0.182,0.154,0.341,0.322,0.497,0.491
		c-0.619-0.3-1.235-0.603-1.854-0.902c-8.59-4.151-16.704-8.072-23.677-14.044c-2.325-1.991-4.647-4.103-6.893-6.144
		c-2.351-2.137-4.781-4.346-7.258-6.459c-4.23-3.61-7.514-7.351-10.038-11.437c-1.088-1.76-2.221-3.512-3.318-5.206
		c-0.747-1.154-1.495-2.309-2.231-3.47c-0.872-1.377-1.723-2.767-2.576-4.156c-0.01-0.017-0.02-0.033-0.031-0.05
		C238.163,172.53,238.651,172.229,239.13,171.82z M81.065,382.453c4.131-8.648,7.186-17.725,10.521-26.689
		c2.246-6.036,5.072-11.757,8.574-17.162c6.781-10.466,12.835-21.406,20.167-31.509c4.587-6.321,7.966-13.056,10.275-20.576
		c3.371-10.98,7.425-21.76,11.446-32.528c3.794-10.16,5.4-20.684,6.049-31.421c0.202-3.332,0.402-6.664,0.665-9.991
		c0.1-1.261-0.104-2.033-1.627-1.945c-2.11,0.122-3.971-0.772-5.677-1.854c-4.126-2.619-8.665-4.206-13.29-5.625
		c-13.345-4.094-25.652-10.493-37.797-17.207c-5.524-3.054-9.535-7.678-12.357-13.335c-1.069-2.144-1.192-4.263-0.695-6.628
		c1.723-8.197,5.991-14.718,12.544-19.816c1.054-0.82,1.862-1.815,2.658-2.878c3.633-4.852,7.325-9.661,11.017-14.468
		c1.914-2.492,4.448-4.228,7.216-5.624c1.506-0.76,2.831-1.719,4.09-2.84c4.014-3.576,8.329-6.749,13.142-9.177
		c3.382-1.706,6.838-3.431,9.634-5.904c3.161-2.796,6.777-4.193,10.639-5.407c2.848-0.895,4.79-3.193,6.93-5.118
		c0.523-0.47,0.655-1.41,0.887-2.159c1.609-5.197,3.207-10.401,4.141-15.772c0.434-2.495,1.862-4.52,2.959-6.703
		c0.415-0.825,1.143-1.313,2.089-1.43c0.698-0.087,1.459-0.421,2.078-0.245c3.133,0.893,4.83-0.806,6.361-3.153
		c0.761-1.167,1.872-2.101,3.125-2.785c2.137-1.167,3.777-0.454,4.388,1.911c0.13,0.505,0.214,1.048,0.177,1.564
		c-0.077,1.071,0.304,1.575,1.425,1.702c1.079,0.122,1.888,0.891,2.674,1.597c2.534,2.275,4.299,5.077,5.591,8.203
		c0.239,0.579,0.629,1.315,0.327,1.76c-1.052,1.549,0.154,2.636,0.6,3.877c0.385,1.073,0.838,2.122,1.229,3.192
		c0.277,0.758,0.468,1.655,0.112,2.323c-1.439,2.698-0.617,5.647-1.067,8.447c-0.032,0.199-0.047,0.411-0.06,0.625l-3.804,2.994
		c-0.63-2.161-2.1-4.077-3.985-5.172c-1.194-0.694-2.69-1.076-4.213-1.076c-1.067,0-2.087,0.182-3.029,0.542
		c-2.285,0.872-3.636,3.092-3.363,5.524c0.357,3.192-0.57,5.637-2.916,7.695c-0.773,0.679-1.06,1.498-1.183,1.847l-0.005,0.014
		l-0.381,0.82l0.141,0.971c0.05,0.347,0.135,0.675,0.206,1.011c-0.298,0.51-0.348,1.259-0.41,2.598
		c-0.057,1.228-0.238,2.22-1.677,2.583c-1.175,0.296-1.778,1.308-2.421,2.286c-3.581,5.448-7.618,10.54-12.465,14.915
		c-3.41,3.078-6.519,6.398-9.197,10.117c-1.811,2.515-3.894,4.772-6.316,6.681c-1.882,1.483-2.192,3.554-2.834,5.844
		c1.179,0,2.055-0.048,2.924,0.008c4.293,0.276,8.61-0.283,12.89,0.378c0.732,0.113,1.368-0.228,2.049-0.357
		c1.625-0.309,3.366-1.107,4.902-0.281c2.086,1.123,4.132,1.173,6.34,0.753c1.128-0.215,2.284-0.018,3.405,0.204
		c1.6,0.318,3.12,0.261,4.608-0.514c1.463-0.761,3.027-0.964,4.58-0.292c1.114,0.482,1.865,0.061,2.83-0.542
		c2.184-1.365,4.076-3.163,6.219-4.585c5.662,14.71,12.123,27.467,19.751,38.978c0.806,1.216,1.628,2.422,2.451,3.627
		c1.607,2.356,3.269,4.791,4.746,7.237c1.45,2.401,3.368,4.412,5.548,5.815c3.037,1.955,5.369,4.657,7.889,7.729
		c2.192,2.674,4.398,5.423,6.531,8.082c4.423,5.515,8.997,11.219,13.776,16.643l0.39,0.443c4.123,4.681,8.367,9.499,13.127,13.849
		c-3.253,2.746-6.169,6.239-9.07,10.841c-5.621,8.918-11.598,16.034-18.273,21.756c-5.222,4.475-9.955,9.701-14.471,15.978
		c-1.506,2.092-3.21,4.044-5.014,6.112c-0.574,0.657-1.147,1.314-1.713,1.976c-0.676,0.79-1.697,1.384-3.023,2.034
		c-3.602,1.763-4.402,3.305-3.722,7.173c0.503,2.863,1.184,5.897,2.727,8.745c-1.501,3.186-2.998,6.426-4.447,9.563
		c-0.694,1.503-1.389,3.007-2.086,4.509c-0.028,0.061-0.056,0.122-0.084,0.179c-4.744,2.015-5.435,6.88-5.701,8.744
		c-0.298,2.102-0.725,3.695-1.382,5.163c-2.04,4.56-4.53,10.72-5.698,17.301c-0.231,1.304-0.313,2.855-0.355,3.855
		c-0.041,0-0.083,0-0.124,0c-2.771,0-4.947,1.259-6.694,2.337c-0.25,0.154-0.499,0.267-0.75,0.417l-0.239,0.122
		c-0.683,0.41-1.12,0.654-1.518,0.728c-2.971,0.56-4.902,2.938-4.92,6.066c-0.004,0.595,0.01,1.187,0.024,1.782
		c0.013,0.541,0.026,1.08,0.022,1.621l-0.02,0.005c-1.046,0.299-2.236,0.402-3.496,0.511c-1.035,0.09-2.104,0.181-3.223,0.388
		c-2.439,0.448-4.882,0.878-7.325,1.309c-8.947,1.579-18.199,3.211-27.207,5.679l-3.454,0.944
		c-7.221,1.97-14.689,4.008-21.974,6.358c-0.61,0.196-1.28,0.354-1.991,0.521c-0.374,0.088-0.748,0.176-1.12,0.27l-0.456,0.115
		c-1.476-3.782-2.657-7.672-3.997-11.504c-0.584-1.67-1.387-2.731-3.126-3.48c-5.119-2.204-9.458-5.697-13.899-8.999
		C80.886,383.712,80.662,383.297,81.065,382.453z M443.125,297.923c-3.179,3.55-4.559,8.07-6.686,12.186
		c-2.386,4.618-5.062,9.037-8.583,12.905c-4.544,4.991-10.84,8.659-17.81,10.347c0.376,0.446,0.59,0.94,0.59,1.462
		c0,0.865-0.577,1.657-1.532,2.271c6.801,1.196,31.513,8.203,33.581,47.027c0,0-13.047-15.096-23.362-22.425
		c-10.077-7.16-22.994-15.873-19.535-24.244c-1.335-0.647-2.18-1.583-2.18-2.629c0-0.216,0.041-0.427,0.11-0.632
		c-6.301-0.666-12.652-3.042-18.39-7.555c-5.154-4.054-9.268-8.841-10.97-15.362c-0.556-2.133-0.823-4.303-0.895-6.605
		c-1.761,0.012-3.005,0.792-4.066,2.056c-1.755,2.089-3.644,4.049-5.864,5.664c-0.845,0.614-1.678,0.964-2.652,0.964
		c-0.395,0-0.814-0.057-1.265-0.179c-0.95-0.255-1.896-0.373-2.833-0.373c-2.008,0-3.978,0.543-5.876,1.447
		c-2.308,1.099-4.434,2.501-6.512,3.975c-4.372,3.103-8.836,6.042-13.749,8.256c-1.924,0.867-3.735,1.958-5.06,3.682
		c-1.273,0.401-2.371,1.133-3.495,1.819c-3.226,1.97-6.323,4.1-9.191,6.585c-1.039,0.9-1.747,1.349-2.386,1.349
		c-0.729,0-1.368-0.584-2.309-1.751c-1.567-1.941-3.2-3.765-5.863-4.148c-1.028-0.148-1.152-0.831-1.134-1.727
		c0.055-2.811-0.025-5.626,0.072-8.435c0.078-2.281-0.362-4.355-1.767-6.19c-0.265-0.347-0.5-0.732-0.668-1.133
		c-0.412-0.989,3.82-5.914,5.133-6.469c1.861-0.786,2.182-2.948,0.664-4.291c-0.386-0.342-0.855-0.635-1.337-0.819
		c-0.246-0.094-0.549-0.137-0.9-0.137c-3.291,0-10.645,3.831-11.566,5.367c-0.773,1.29-1.229,2.713-1.647,4.151
		c-0.634,2.184-0.823,2.275-3.107,2.415c-0.262,0.016-0.522,0.024-0.78,0.024c-2.053,0-3.968-0.511-5.802-1.511
		c-2.629-1.434-5.14-3.056-7.483-4.905c-4.55-3.591-9.007-7.299-13.539-10.913c-1.508-1.202-3.088-2.328-4.712-3.369
		c-0.666-0.428-1.425-0.716-2.144-0.716c-0.641,0-1.251,0.23-1.737,0.796c-0.781,0.912-1.552,1.151-2.426,1.151
		c-0.458,0-0.945-0.067-1.477-0.136c-0.234-0.031-0.458-0.046-0.673-0.046c-2.497,0-3.657,2.007-2.63,4.543
		c0.347,0.857,1.01,1.615,0.995,2.588c-0.27,0.109-0.424,0.197-0.589,0.233c-3.924,0.88-4.818,3.07-2.65,6.397
		c1.327,2.038,2.592,4.117,3.747,5.958c-0.193,0.637-0.451,0.679-0.698,0.771c-2.469,0.909-3.303,2.686-2.5,5.153
		c0.364,1.116,1.008,2.059,1.71,2.948c3.105,3.932,6.274,7.81,9.954,11.234c3.281,3.052,6.504,6.167,9.832,9.166
		c2.892,2.607,6.106,4.715,9.903,5.84c3.204,0.949,6.481,1.535,9.764,2.095c1.85,0.316,2.055,0.652,1.326,2.382
		c-0.204,0.485-0.459,0.949-0.672,1.43c-0.603,1.361-0.731,2.792,0.051,4.062c2.756,4.477,6.107,8.417,11.043,10.581
		c2.426,1.063,4.697,2.373,6.997,3.651c0.995,0.553,1.97,1.153,2.554,2.195c2.954,4.877,5.764,9.815,7.173,15.418
		c0.231,0.919,0.273,1.706-0.217,2.514c-1.014,1.672-0.719,3.131,0.15,4.912c1.753,3.594,4.21,6.443,7.444,8.697
		c3.242,2.261,4.852,5.213,4.079,9.263c-0.312,1.637,0.54,2.899,1.693,3.938c1.762,1.587,3.512,3.196,5.375,4.657
		c1.164,0.913,2.069,1.895,2.276,3.385c0.476,3.431,2.3,6.166,4.3,8.89c7.092,9.655,14.92,18.669,23.316,27.2
		c0.324,0.329,0.658,0.647,0.989,0.968c-30.724,14.244-64.952,22.208-101.044,22.208c-66.299,0-126.33-26.825-169.838-70.211
		c5.864-2.709,11.87-5.1,17.832-7.584c0.966-0.402,2.001-0.671,2.838-1.35c1.105-0.281,2.229-0.5,3.312-0.849
		c8.351-2.694,16.828-4.941,25.287-7.26c11.265-3.087,22.795-4.823,34.255-6.926c2.336-0.429,4.729-0.314,7.03-0.971
		c1.993-0.569,2.394-1.019,2.411-3.136c0.009-1.142-0.053-2.285-0.046-3.427c0.009-1.514,0.773-2.577,2.232-2.851
		c1.092-0.205,1.936-0.753,2.837-1.29c1.842-1.098,3.611-2.411,5.756-2.411c0.639,0.001,1.31,0.116,2.027,0.39
		c0.179,0.068,0.335,0.099,0.471,0.099c0.65,0,0.844-0.709,0.866-1.471c0.051-1.84,0.037-3.672,0.363-5.511
		c1.021-5.756,3.093-11.154,5.461-16.449c0.872-1.95,1.336-3.93,1.637-6.046c0.369-2.597,1.119-5.22,4.011-6.288
		c0.869-0.321,1.17-1.001,1.499-1.713c2.218-4.78,4.411-9.572,6.659-14.338c0.415-0.88,0.417-1.566-0.078-2.441
		c-1.402-2.474-2.031-5.229-2.518-7.996c-0.424-2.41-0.304-2.551,1.926-3.642c1.513-0.742,2.974-1.562,4.076-2.85
		c2.342-2.734,4.801-5.392,6.899-8.307c4.077-5.667,8.653-10.869,13.94-15.4c7.551-6.472,13.657-14.154,18.917-22.501
		c2.709-4.298,5.758-8.166,9.83-11.211c0.478-0.357,1.035-0.679,1.218-1.328c-0.074-0.155-0.109-0.356-0.229-0.458
		c-5.726-4.841-10.646-10.471-15.581-16.072c-7.027-7.977-13.493-16.42-20.231-24.637c-2.562-3.124-5.179-6.174-8.653-8.411
		c-1.833-1.18-3.357-2.837-4.51-4.747c-2.271-3.761-4.845-7.322-7.27-10.98c-8.04-12.133-14.373-25.144-19.573-38.719
		c0.141-0.744-0.278-1.361-0.507-2.002c-2.385-6.677-4.692-13.376-6.745-20.168c-1.345-4.451-3.208-8.714-6.019-12.482
		c-1.133-1.517-1.757-3.214-2.025-5.065c0.11-0.237,0.16-0.543,0.339-0.7c3.202-2.808,4.487-6.348,4.018-10.54
		c-0.12-1.068,0.491-1.782,1.261-2.077c0.585-0.223,1.225-0.325,1.855-0.325c0.946,0,1.87,0.231,2.557,0.629
		c1.07,0.622,2.138,1.852,2.534,3.461c0.461,1.869,1.236,2.775,2.336,2.775c0.76,0,1.676-0.432,2.75-1.278
		c0.262,2.972,0.079,5.944-0.26,8.885c-0.358,3.102,0.572,5.75,2.492,8.033c3.846,4.574,7.171,9.495,10.302,14.574
		c3.406,5.526,7.28,10.739,11.487,15.673c6.366,7.466,12.885,14.8,19.338,22.19c1.239,2.009,2.461,4.031,3.725,6.027
		c1.831,2.889,3.732,5.734,5.529,8.644c2.888,4.674,6.526,8.647,10.703,12.212c4.802,4.098,9.351,8.492,14.146,12.599
		c8.564,7.334,18.846,11.749,28.824,16.667c2.045,2.338,4.771,3.527,7.635,4.438c2.172,0.691,4.366,1.331,6.581,1.866
		c2.425,0.587,4.398,1.853,5.79,3.858c2.438,3.515,5.549,6.321,8.861,8.956c1.231,0.98,2.452,1.981,3.217,3.437
		c0.512,0.973,1.411,1.381,2.51,1.381c0.047,0,0.094-0.001,0.141-0.002c0.923-0.029,1.845-0.058,2.766-0.058
		c1.969,0,3.93,0.133,5.87,0.68c0.206,0.058,0.412,0.083,0.618,0.083c0.74,0,1.476-0.322,2.195-0.576
		c2.485-0.875,4.982-1.672,7.646-1.869c1.687-0.126,3.209-0.838,4.615-1.792c5.89-3.998,12.332-5.884,19.259-5.884
		c0.985,0,1.98,0.038,2.984,0.114c0.608,0.046,1.213,0.068,1.816,0.068c2.205,0,4.381-0.291,6.552-0.768
		c3.028-0.665,5.56-2.055,7.473-4.555c1.723-2.254,3.794-4.14,6.283-5.542c1.776-1.001,3.281-1.515,4.66-1.515
		c2.028,0,3.78,1.113,5.705,3.428c0.449,0.539,0.882,1.099,1.251,1.694c0.32,0.517,0.625,0.863,1.183,0.863
		c0.147,0,0.312-0.024,0.5-0.076c0.43-0.118,0.841-0.182,1.225-0.182c1.167,0,2.084,0.589,2.519,2.037
		c0.183,0.61,0.593,0.728,1.017,0.728c0.163,0,0.327-0.017,0.481-0.031c0.161-0.014,0.317-0.022,0.467-0.022
		c1.584,0.001,2.543,0.811,2.977,2.439c0.088,0.329,0.321,0.622,0.498,0.925c0.798,1.373,1.154,1.983,1.728,1.983
		c0.46,0,1.061-0.394,2.144-1.104c0.841-0.552,1.693-0.812,2.482-0.812c1.764,0.001,3.208,1.305,3.486,3.574
		c0.332,2.7,0.084,5.443,0.513,8.149c0.303,1.906,0.421,3.841,0.688,5.754c0.077,0.553-0.164,1.447,0.692,1.447
		c0.138,0,0.305-0.024,0.507-0.075c0.067-0.017,0.123-0.025,0.17-0.025c0.384,0,0.162,0.517,0.042,0.691
		c-1.003,1.448-0.257,2.458,0.789,3.42c0.518,0.475,1.021,0.967,1.523,1.458c4.553,4.454,6.859,10.036,7.926,16.174
		c0.537,3.087,0.02,6.135-1.197,9.028c-0.383,0.909-0.822,1.69-0.018,2.654C444.206,296.176,443.774,297.199,443.125,297.923z
		 M280.675,353.131c-1.001-1.825-3.006-2.167-3.97-2.331c-3.239-0.552-6.394-1.121-9.383-2.006
		c-2.949-0.874-5.772-2.551-8.632-5.128c-2.125-1.916-4.257-3.925-6.318-5.868c-1.156-1.09-2.313-2.18-3.476-3.262
		c-3.599-3.348-6.722-7.202-9.613-10.863c-0.45-0.57-0.941-1.246-1.162-1.927c-0.122-0.375-0.138-0.608-0.133-0.705
		c0.072-0.064,0.267-0.196,0.637-0.333c1.368-0.482,2.276-1.459,2.715-2.91l0.434-1.435l-0.797-1.27
		c-0.347-0.552-0.703-1.126-1.068-1.714c-0.867-1.396-1.764-2.84-2.71-4.291c-0.303-0.466-0.458-0.798-0.537-1.011
		c0.212-0.102,0.571-0.241,1.146-0.37c0.419-0.093,0.741-0.236,0.954-0.33l0.144-0.062l2.033-0.818l0.032-2.191
		c0.023-1.525-0.592-2.66-0.999-3.411c-0.086-0.159-0.175-0.324-0.222-0.429c0.542,0.07,1.103,0.138,1.708,0.138
		c1.759,0,3.223-0.589,4.456-1.796c0.023,0.013,0.046,0.028,0.07,0.043c1.555,0.997,3.047,2.065,4.437,3.172
		c2.021,1.611,4.026,3.241,6.032,4.871c2.453,1.993,4.988,4.054,7.52,6.052c2.389,1.886,5.063,3.639,7.948,5.212
		c2.329,1.27,4.811,1.913,7.38,1.913c0.325,0,0.651-0.01,0.982-0.031c3.743-0.23,5.047-1.259,6.071-4.787
		c0.32-1.105,0.678-2.258,1.212-3.209c0.992-0.936,4.566-2.784,7.046-3.567c-0.943,0.855-1.822,1.863-2.399,2.564
		c-2.083,2.535-3.292,4.655-2.416,6.758c0.268,0.643,0.635,1.271,1.092,1.868c0.816,1.065,1.151,2.32,1.091,4.074
		c-0.057,1.653-0.055,3.305-0.053,4.904c0.001,1.179,0.003,2.399-0.02,3.581c-0.082,4.149,3.011,4.918,3.96,5.055
		c1.33,0.192,2.275,1.105,3.767,2.955c0.898,1.113,2.402,2.977,4.875,2.977c1.898,0,3.341-1.112,4.544-2.154
		c2.454-2.126,5.235-4.116,8.751-6.263l0.422-0.26c0.676-0.417,1.28-0.787,1.857-1.039c0.276,1.827,0.551,3.655,0.797,5.487
		c0.747,5.567,1.443,11.138,1.425,16.773c-0.005,1.539-0.182,3.017-1.172,4.22c-2.462,2.991-4.534,6.261-6.621,9.497
		c-3.327,5.158-7.77,7.978-13.332,8.694c-0.296-0.497-0.592-0.993-0.888-1.483c-1.091-1.905-2.848-2.881-3.796-3.408l-0.858-0.479
		c-2.04-1.139-4.149-2.316-6.416-3.31c-3.637-1.595-6.585-4.46-9.559-9.29c-0.145-0.236,0.035-0.727,0.156-0.999
		c0.079-0.179,0.166-0.354,0.252-0.53c0.155-0.317,0.309-0.634,0.445-0.958C280.892,356.817,281.676,354.956,280.675,353.131z"/>
</g>
</svg>
